Coordinates
version=1
nRows=20
nColumns=34
inDegrees=yes

Units are S.I. units (second, meters, Newtons, ...)
If the header above contains a line with 'inDegrees', this indicates whether rotational values are in degrees (yes) or radians (no).

endheader
time	pelvis_tilt	pelvis_list	pelvis_rotation	pelvis_tx	pelvis_ty	pelvis_tz	hip_flexion_r	hip_adduction_r	hip_rotation_r	knee_angle_r	ankle_angle_r	subtalar_angle_r	mtp_angle_r	hip_flexion_l	hip_adduction_l	hip_rotation_l	knee_angle_l	ankle_angle_l	subtalar_angle_l	mtp_angle_l	lumbar_extension	lumbar_bending	lumbar_rotation	arm_flex_r	arm_add_r	arm_rot_r	elbow_flex_r	pro_sup_r	arm_flex_l	arm_add_l	arm_rot_l	elbow_flex_l	pro_sup_l
5.866667	-7.234079	0.052581	2.849972	0.803856	0.906446	-0.080346	19.367434	-5.363030	-13.120158	10.987299	-0.545037	-19.906947	0.000000	21.695100	-3.567390	-9.583300	14.213606	3.700185	-10.933923	0.000000	-6.137141	1.082201	2.721337	62.379106	-16.842001	30.951392	31.385921	77.036371	57.107855	-8.229657	14.789120	35.563752	62.469752
5.883333	-8.506668	-0.141098	2.741533	0.795644	0.899740	-0.080207	23.453975	-5.583307	-11.689657	14.965833	-0.540760	-22.650566	0.000000	25.589699	-3.899740	-8.378685	17.912867	4.179255	-13.459958	0.000000	-6.334660	1.248882	3.167048	66.007966	-16.863293	31.818367	30.436148	76.722990	60.698276	-7.677776	15.710723	35.183101	62.482741
5.900000	-9.750742	-0.275426	2.623497	0.788071	0.891390	-0.080043	27.834614	-5.902369	-10.308435	19.491830	-0.478018	-25.385434	0.000000	29.690345	-4.186871	-7.266291	22.026909	4.818462	-15.863411	0.000000	-6.634600	1.348721	3.573941	69.703716	-16.857652	32.737406	29.478507	76.315243	64.456919	-7.128682	16.840370	34.565907	62.532965
5.916667	-10.935783	-0.339263	2.509660	0.781255	0.881237	-0.079831	32.386611	-6.323848	-9.043958	24.445908	-0.268596	-27.920724	0.000000	33.899099	-4.425768	-6.300056	26.487688	5.666813	-18.002918	0.000000	-7.001424	1.364244	3.921435	73.438601	-16.813487	33.777660	28.512260	75.741635	68.378960	-6.618481	18.302562	33.655060	62.604069
5.933333	-12.034379	-0.336083	2.411161	0.775146	0.869440	-0.079536	36.976097	-6.832964	-7.945100	29.667098	0.195109	-30.065490	0.000000	38.122904	-4.627541	-5.504828	31.204006	6.751234	-19.774234	0.000000	-7.414737	1.296753	4.189389	77.186165	-16.717519	35.013362	27.558215	74.913858	72.448862	-6.188269	20.215916	32.429030	62.656783
5.950000	-13.012461	-0.281757	2.332241	0.769642	0.856461	-0.079126	41.452560	-7.396887	-7.042001	34.964487	1.021679	-31.637624	0.000000	42.258862	-4.814302	-4.878047	36.056639	8.068433	-21.112699	0.000000	-7.889579	1.166090	4.357187	80.906465	-16.554908	36.455127	26.694571	73.764011	76.604987	-5.884984	22.596936	30.975057	62.630315
5.966667	-13.851979	-0.195887	2.263851	0.764616	0.842847	-0.078606	45.689621	-7.972343	-6.338247	40.148259	2.268156	-32.509744	0.000000	46.218285	-5.010737	-4.399379	40.905943	9.567775	-22.012371	0.000000	-8.444110	0.999459	4.414500	84.534110	-16.308269	38.009662	26.036693	72.287015	80.725007	-5.747583	25.301776	29.493988	62.457342
5.983333	-14.566315	-0.093815	2.183962	0.759902	0.829047	-0.078002	49.619515	-8.515079	-5.806573	45.061207	3.889038	-32.673558	0.000000	49.950557	-5.235399	-4.040269	45.611315	11.152103	-22.535421	0.000000	-9.073162	0.818559	4.372994	87.996698	-15.961242	39.526907	25.667422	70.554050	84.670167	-5.785297	28.084375	28.199061	62.092743
6.000000	-15.186753	0.016674	2.069150	0.755317	0.815376	-0.077347	53.226717	-8.989640	-5.397964	49.594515	5.735643	-32.260331	0.000000	53.437067	-5.493917	-3.769331	50.052313	12.712451	-22.783051	0.000000	-9.761619	0.633697	4.263483	91.246914	-15.507993	40.875842	25.593922	68.707355	88.347939	-5.964100	30.696904	27.206972	61.544834
6.016667	-15.748326	0.135184	1.908088	0.750698	0.802000	-0.076686	56.535692	-9.379944	-5.058490	53.696919	7.621104	-31.478175	0.000000	56.682369	-5.775795	-3.556569	54.146421	14.173007	-22.844970	0.000000	-10.497991	0.445042	4.120140	94.275198	-14.958471	41.976292	25.757087	66.936560	91.736172	-6.212743	32.949293	26.508670	60.879154
6.033333	-16.279683	0.264458	1.706775	0.745942	0.788901	-0.076082	59.598810	-9.693663	-4.746350	57.379774	9.419193	-30.498905	0.000000	59.710232	-6.059564	-3.377073	57.864375	15.512912	-22.768968	0.000000	-11.278933	0.249877	3.965578	97.109791	-14.335817	42.821678	26.057324	65.389518	94.879925	-6.449126	34.786812	25.991960	60.168892
6.050000	-16.791709	0.404567	1.484402	0.741058	0.775917	-0.075581	62.472897	-9.953958	-4.439714	60.705237	11.109315	-29.401599	0.000000	62.552804	-6.324034	-3.211441	61.232749	16.749005	-22.572930	0.000000	-12.113743	0.050351	3.805819	99.808632	-13.670672	43.494509	26.385825	64.080846	97.869935	-6.613435	36.341661	25.493705	59.434621
6.066667	-17.281799	0.552077	1.262935	0.736165	0.762855	-0.075180	65.207064	-10.182726	-4.129296	63.758269	12.726049	-28.219950	0.000000	65.243396	-6.557931	-3.046538	64.315470	17.904904	-22.273876	0.000000	-13.011603	-0.145427	3.636814	102.428997	-12.990858	44.108031	26.665200	62.929824	100.785392	-6.687317	37.815547	24.891127	58.650095
6.083333	-17.752345	0.703458	1.056279	0.731412	0.749608	-0.074825	67.848850	-10.386329	-3.806591	66.615777	14.279541	-27.013134	0.000000	67.818181	-6.763981	-2.879161	67.183497	18.994228	-21.903186	0.000000	-13.958670	-0.328071	3.455392	104.994358	-12.308802	44.715986	26.873429	61.878301	103.637790	-6.691350	39.290653	24.176932	57.798018
6.100000	-18.214711	0.856952	0.867196	0.726880	0.736224	-0.074450	70.439625	-10.554189	-3.462114	69.324874	15.730562	-25.873807	0.000000	70.308551	-6.955107	-2.715922	69.887742	20.014471	-21.508702	0.000000	-14.922222	-0.492502	3.262889	107.495161	-11.619537	45.305252	27.025642	60.929610	106.380442	-6.665459	40.707754	23.434815	56.890773
6.116667	-18.675935	1.011292	0.693156	0.722565	0.722881	-0.074024	72.997054	-10.670096	-3.091019	71.899255	17.021136	-24.887660	0.000000	72.726828	-7.144625	-2.566357	72.449214	20.946508	-21.147813	0.000000	-15.877309	-0.640170	3.061124	109.914867	-10.913332	45.858993	27.135621	60.099448	108.965499	-6.642866	41.991972	22.745884	55.947755
6.133333	-19.133359	1.162540	0.535922	0.718438	0.709771	-0.073549	75.512247	-10.726657	-2.697194	74.333430	18.105337	-24.107346	0.000000	75.068239	-7.337424	-2.434246	74.869338	21.765364	-20.867177	0.000000	-16.816385	-0.775529	2.851931	112.243029	-10.194742	46.377216	27.204261	59.388782	111.370624	-6.629576	43.103878	22.144245	54.991330
6.150000	-19.581644	1.302362	0.409601	0.714537	0.696978	-0.073044	77.964529	-10.735202	-2.291974	76.624415	18.963127	-23.552343	0.000000	77.326143	-7.525520	-2.313194	77.147897	22.460551	-20.679863	0.000000	-17.737665	-0.900038	2.645624	114.474089	-9.493123	46.846733	27.229533	58.801388	113.583905	-6.596142	43.988435	21.636014	54.063497
6.166667	-20.018809	1.420421	0.339716	0.710969	0.684452	-0.072531	80.337213	-10.724330	-1.886829	78.786575	19.611429	-23.208916	0.000000	79.504379	-7.690039	-2.189876	79.296197	23.048844	-20.559962	0.000000	-18.637144	-1.009781	2.467047	116.619622	-8.848319	47.251142	27.189661	58.343621	115.600955	-6.487086	44.576684	21.203708	53.203721
6.183333	-20.447553	1.508721	0.351628	0.707778	0.672064	-0.072027	82.627041	-10.726903	-1.486802	80.851136	20.105719	-23.028106	0.000000	81.622115	-7.809930	-2.051867	81.339027	23.566345	-20.456911	0.000000	-19.511660	-1.098103	2.347349	118.725916	-8.282335	47.620425	27.013483	57.999405	117.445917	-6.246096	44.857825	20.790748	52.399679
